<svg width="16" height="16" viewBox="0 0 16 16" fill="none" xmlns="http://www.w3.org/2000/svg">
<g clip-path="url(#clip0_359_520)">
<path d="M14.6667 7.99998H13.0134C12.722 7.99936 12.4385 8.09418 12.2061 8.26996C11.9738 8.44573 11.8054 8.69278 11.7267 8.97331L10.16 14.5466C10.1499 14.5813 10.1289 14.6117 10.1 14.6333C10.0712 14.6549 10.0361 14.6666 10 14.6666C9.96398 14.6666 9.92889 14.6549 9.90004 14.6333C9.87119 14.6117 9.85014 14.5813 9.84004 14.5466L6.16004 1.45331C6.14994 1.41869 6.12889 1.38828 6.10004 1.36665C6.07119 1.34501 6.0361 1.33331 6.00004 1.33331C5.96398 1.33331 5.92889 1.34501 5.90004 1.36665C5.87119 1.38828 5.85014 1.41869 5.84004 1.45331L4.27337 7.02665C4.19502 7.30608 4.02763 7.55232 3.79662 7.72799C3.56561 7.90365 3.28359 7.99915 2.99337 7.99998H1.33337" stroke="white" stroke-width="1.2" stroke-linecap="round" stroke-linejoin="round"/>
</g>
<defs>
<clipPath id="clip0_359_520">
<rect width="16" height="16" fill="white"/>
</clipPath>
</defs>
</svg>
