<svg width="16" height="16" viewBox="0 0 16 16" fill="none" xmlns="http://www.w3.org/2000/svg">
<path d="M9.33329 2V3.33333M6.66663 2V3.33333M9.33329 14V12.6667M6.66663 14V12.6667" stroke="white" stroke-width="1.2" stroke-linecap="round" stroke-linejoin="round"/>
<path d="M4 3.33331H9C9.61884 3.33331 10.2123 3.57915 10.6499 4.01673C11.0875 4.45432 11.3333 5.04781 11.3333 5.66665C11.3333 6.28548 11.0875 6.87898 10.6499 7.31656C10.2123 7.75415 9.61884 7.99998 9 7.99998H5.33333" stroke="white" stroke-width="1.2" stroke-linecap="round" stroke-linejoin="round"/>
<path d="M4 12.6667H9.66667C10.2855 12.6667 10.879 12.4208 11.3166 11.9832C11.7542 11.5457 12 10.9522 12 10.3333C12 9.71449 11.7542 9.121 11.3166 8.68342C10.879 8.24583 10.2855 8 9.66667 8H5.33333" stroke="white" stroke-width="1.2" stroke-linecap="round" stroke-linejoin="round"/>
<path d="M5.33337 3.33331V12.6666" stroke="white" stroke-width="1.2" stroke-linecap="round" stroke-linejoin="round"/>
</svg>
