<svg width="16" height="16" viewBox="0 0 16 16" fill="none" xmlns="http://www.w3.org/2000/svg">
<path d="M6.00012 1.99994H2.66679C2.2986 1.99994 2.00012 2.29842 2.00012 2.66661V7.33327C2.00012 7.70146 2.2986 7.99994 2.66679 7.99994H6.00012C6.36831 7.99994 6.66679 7.70146 6.66679 7.33327V2.66661C6.66679 2.29842 6.36831 1.99994 6.00012 1.99994Z" stroke="white" stroke-width="1.2" stroke-linecap="round" stroke-linejoin="round"/>
<path d="M13.3335 1.99994H10.0002C9.63197 1.99994 9.3335 2.29842 9.3335 2.66661V4.66661C9.3335 5.0348 9.63197 5.33327 10.0002 5.33327H13.3335C13.7017 5.33327 14.0002 5.0348 14.0002 4.66661V2.66661C14.0002 2.29842 13.7017 1.99994 13.3335 1.99994Z" stroke="white" stroke-width="1.2" stroke-linecap="round" stroke-linejoin="round"/>
<path d="M13.3335 8H10.0002C9.63197 8 9.3335 8.29848 9.3335 8.66667V13.3333C9.3335 13.7015 9.63197 14 10.0002 14H13.3335C13.7017 14 14.0002 13.7015 14.0002 13.3333V8.66667C14.0002 8.29848 13.7017 8 13.3335 8Z" stroke="white" stroke-width="1.2" stroke-linecap="round" stroke-linejoin="round"/>
<path d="M6.00012 10.6666H2.66679C2.2986 10.6666 2.00012 10.9651 2.00012 11.3333V13.3333C2.00012 13.7015 2.2986 14 2.66679 14H6.00012C6.36831 14 6.66679 13.7015 6.66679 13.3333V11.3333C6.66679 10.9651 6.36831 10.6666 6.00012 10.6666Z" stroke="white" stroke-width="1.2" stroke-linecap="round" stroke-linejoin="round"/>
</svg>
