<svg width="16" height="16" viewBox="0 0 16 16" fill="none" xmlns="http://www.w3.org/2000/svg">
<path d="M7.83813 1.11035C7.91803 1.00014 8.08256 1.00001 8.16235 1.11035L12.2981 6.83789C12.3599 6.92351 12.3438 7.03929 12.2678 7.10547L12.2307 7.13086L8.09497 9.3584C8.05063 9.38228 7.99922 9.38797 7.95142 9.37598L7.90552 9.3584L3.7688 7.13086C3.66261 7.0735 3.631 6.9358 3.70142 6.83789L7.83813 1.11035ZM7.51392 1.78711L4.16626 6.42285L3.76489 6.97754L4.36841 7.30176L7.71509 9.10449L8.00024 9.25781L8.28442 9.10449L11.6321 7.30176L12.2346 6.97754L11.8342 6.42285L8.48657 1.78711L8.00024 1.11426L7.51392 1.78711Z" stroke="white" stroke-width="1.2"/>
<path d="M8.15479 14.9174C8.0848 15.0023 7.96157 15.0133 7.87842 14.9496L7.84521 14.9174L5.59521 12.1849L7.55518 14.3539L8.00049 14.8461L8.44482 14.3539L10.4038 12.1849L8.15479 14.9174ZM12.2104 9.53259C12.2461 9.5419 12.2873 9.56681 12.3208 9.60876C12.3542 9.65062 12.3694 9.696 12.3706 9.73279C12.3715 9.76266 12.3644 9.80542 12.3188 9.86072L11.0806 11.3627L10.3843 10.4711L8.0835 11.6986C8.03006 11.7232 7.96888 11.7235 7.91553 11.6986L5.61572 10.4711L4.91846 11.3627L3.68115 9.86072C3.63563 9.80542 3.62849 9.76265 3.62939 9.73279C3.6306 9.69601 3.64585 9.65063 3.6792 9.60876C3.71266 9.5668 3.75391 9.5419 3.78955 9.53259C3.81846 9.5251 3.86141 9.52311 3.92529 9.55505L7.73193 11.4584L8.00049 11.5922L12.0747 9.55505C12.1386 9.52311 12.1815 9.52511 12.2104 9.53259Z" stroke="white" stroke-width="1.2"/>
</svg>
