<svg width="16" height="16" viewBox="0 0 16 16" fill="none" xmlns="http://www.w3.org/2000/svg">
<path d="M10.6667 5.33337C11.7276 5.33337 12.745 5.7548 13.4952 6.50495C14.2453 7.25509 14.6667 8.27251 14.6667 9.33337V14H12.0001V9.33337C12.0001 8.97975 11.8596 8.64061 11.6096 8.39057C11.3595 8.14052 11.0204 8.00004 10.6667 8.00004C10.3131 8.00004 9.97399 8.14052 9.72394 8.39057C9.47389 8.64061 9.33341 8.97975 9.33341 9.33337V14H6.66675V9.33337C6.66675 8.27251 7.08818 7.25509 7.83832 6.50495C8.58847 5.7548 9.60588 5.33337 10.6667 5.33337Z" stroke="white" stroke-width="1.2" stroke-linecap="round" stroke-linejoin="round"/>
<path d="M4.00004 6H1.33337V14H4.00004V6Z" stroke="white" stroke-width="1.2" stroke-linecap="round" stroke-linejoin="round"/>
<path d="M2.66623 3.99909C3.40235 3.99909 3.99909 3.40235 3.99909 2.66623C3.99909 1.93012 3.40235 1.33337 2.66623 1.33337C1.93012 1.33337 1.33337 1.93012 1.33337 2.66623C1.33337 3.40235 1.93012 3.99909 2.66623 3.99909Z" stroke="white" stroke-width="1.2" stroke-linecap="round" stroke-linejoin="round"/>
</svg>
