<svg width="79" height="40" viewBox="0 0 79 40" fill="none" xmlns="http://www.w3.org/2000/svg">
<path d="M0 28L6.59766 10.8203H9.04688L16.0781 28H13.4883L11.4844 22.7969H4.30078L2.41406 28H0ZM4.95703 20.9453H10.7812L8.98828 16.1875C8.44141 14.7422 8.03516 13.5547 7.76953 12.625C7.55078 13.7266 7.24219 14.8203 6.84375 15.9062L4.95703 20.9453ZM17.8945 28V10.8203H23.8125C25.1484 10.8203 26.168 10.9023 26.8711 11.0664C27.8555 11.293 28.6953 11.7031 29.3906 12.2969C30.2969 13.0625 30.9727 14.043 31.418 15.2383C31.8711 16.4258 32.0977 17.7852 32.0977 19.3164C32.0977 20.6211 31.9453 21.7773 31.6406 22.7852C31.3359 23.793 30.9453 24.6289 30.4688 25.293C29.9922 25.9492 29.4688 26.4688 28.8984 26.8516C28.3359 27.2266 27.6523 27.5117 26.8477 27.707C26.0508 27.9023 25.1328 28 24.0938 28H17.8945ZM20.168 25.9727H23.8359C24.9688 25.9727 25.8555 25.8672 26.4961 25.6562C27.1445 25.4453 27.6602 25.1484 28.043 24.7656C28.582 24.2266 29 23.5039 29.2969 22.5977C29.6016 21.6836 29.7539 20.5781 29.7539 19.2812C29.7539 17.4844 29.457 16.1055 28.8633 15.1445C28.2773 14.1758 27.5625 13.5273 26.7188 13.1992C26.1094 12.9648 25.1289 12.8477 23.7773 12.8477H20.168V25.9727ZM35.2383 28V10.8203H41.7188C42.8594 10.8203 43.7305 10.875 44.332 10.9844C45.1758 11.125 45.8828 11.3945 46.4531 11.793C47.0234 12.1836 47.4805 12.7344 47.8242 13.4453C48.1758 14.1562 48.3516 14.9375 48.3516 15.7891C48.3516 17.25 47.8867 18.4883 46.957 19.5039C46.0273 20.5117 44.3477 21.0156 41.918 21.0156H37.5117V28H35.2383ZM37.5117 18.9883H41.9531C43.4219 18.9883 44.4648 18.7148 45.082 18.168C45.6992 17.6211 46.0078 16.8516 46.0078 15.8594C46.0078 15.1406 45.8242 14.5273 45.457 14.0195C45.0977 13.5039 44.6211 13.1641 44.0273 13C43.6445 12.8984 42.9375 12.8477 41.9062 12.8477H37.5117V18.9883ZM47.5781 28L54.1758 10.8203H56.625L63.6562 28H61.0664L59.0625 22.7969H51.8789L49.9922 28H47.5781ZM52.5352 20.9453H58.3594L56.5664 16.1875C56.0195 14.7422 55.6133 13.5547 55.3477 12.625C55.1289 13.7266 54.8203 14.8203 54.4219 15.9062L52.5352 20.9453ZM68.5312 28V20.7227L61.9102 10.8203H64.6758L68.0625 16C68.6875 16.9688 69.2695 17.9375 69.8086 18.9062C70.3242 18.0078 70.9492 16.9961 71.6836 15.8711L75.0117 10.8203H77.6602L70.8047 20.7227V28H68.5312Z" fill="url(#paint0_linear_376_796)"/>
<defs>
<linearGradient id="paint0_linear_376_796" x1="0.0351562" y1="20" x2="78.0352" y2="20" gradientUnits="userSpaceOnUse">
<stop stop-color="white"/>
<stop offset="0.5" stop-color="#BEDBFF"/>
<stop offset="1" stop-color="#2563EB"/>
</linearGradient>
</defs>
</svg>
