<svg width="16" height="16" viewBox="0 0 16 16" fill="none" xmlns="http://www.w3.org/2000/svg">
<path d="M2.66675 1.33331V14.6666L4.00008 14L5.33341 14.6666L6.66675 14L8.00008 14.6666L9.33341 14L10.6667 14.6666L12.0001 14L13.3334 14.6666V1.33331L12.0001 1.99998L10.6667 1.33331L9.33341 1.99998L8.00008 1.33331L6.66675 1.99998L5.33341 1.33331L4.00008 1.99998L2.66675 1.33331Z" stroke="white" stroke-width="1.2" stroke-linecap="round" stroke-linejoin="round"/>
<path d="M10.6666 5.33325H6.66659C6.31296 5.33325 5.97382 5.47373 5.72378 5.72378C5.47373 5.97382 5.33325 6.31296 5.33325 6.66659C5.33325 7.02021 5.47373 7.35935 5.72378 7.60939C5.97382 7.85944 6.31296 7.99992 6.66659 7.99992H9.33325C9.68687 7.99992 10.026 8.14039 10.2761 8.39044C10.5261 8.64049 10.6666 8.97963 10.6666 9.33325C10.6666 9.68687 10.5261 10.026 10.2761 10.2761C10.026 10.5261 9.68687 10.6666 9.33325 10.6666H5.33325" stroke="white" stroke-width="1.2" stroke-linecap="round" stroke-linejoin="round"/>
<path d="M8 11.6666V4.33331" stroke="white" stroke-width="1.2" stroke-linecap="round" stroke-linejoin="round"/>
</svg>
