<svg width="16" height="16" viewBox="0 0 16 16" fill="none" xmlns="http://www.w3.org/2000/svg">
<path d="M6.44741 2.75732C6.48415 2.37088 6.66364 2.01202 6.95082 1.75084C7.238 1.48967 7.61223 1.34494 8.00041 1.34494C8.3886 1.34494 8.76283 1.48967 9.05001 1.75084C9.33719 2.01202 9.51668 2.37088 9.55341 2.75732C9.57549 3.00696 9.65739 3.2476 9.79217 3.45888C9.92695 3.67016 10.1107 3.84586 10.3277 3.97111C10.5448 4.09635 10.7888 4.16746 11.0392 4.1784C11.2896 4.18935 11.5389 4.13981 11.7661 4.03399C12.1188 3.87384 12.5185 3.85067 12.8874 3.96898C13.2563 4.08729 13.568 4.33862 13.7618 4.67406C13.9556 5.00949 14.0176 5.40504 13.9358 5.7837C13.8541 6.16237 13.6343 6.49707 13.3194 6.72266C13.1143 6.86655 12.9469 7.05773 12.8314 7.28001C12.7158 7.50228 12.6554 7.74913 12.6554 7.99966C12.6554 8.25018 12.7158 8.49703 12.8314 8.71931C12.9469 8.94158 13.1143 9.13276 13.3194 9.27666C13.6343 9.50224 13.8541 9.83694 13.9358 10.2156C14.0176 10.5943 13.9556 10.9898 13.7618 11.3253C13.568 11.6607 13.2563 11.912 12.8874 12.0303C12.5185 12.1486 12.1188 12.1255 11.7661 11.9653C11.5389 11.8595 11.2896 11.81 11.0392 11.8209C10.7888 11.8319 10.5448 11.903 10.3277 12.0282C10.1107 12.1534 9.92695 12.3291 9.79217 12.5404C9.65739 12.7517 9.57549 12.9924 9.55341 13.242C9.51668 13.6284 9.33719 13.9873 9.05001 14.2485C8.76283 14.5096 8.3886 14.6544 8.00041 14.6544C7.61223 14.6544 7.238 14.5096 6.95082 14.2485C6.66364 13.9873 6.48415 13.6284 6.44741 13.242C6.42538 12.9923 6.34348 12.7515 6.20866 12.5402C6.07384 12.3288 5.89006 12.1531 5.6729 12.0278C5.45574 11.9025 5.21159 11.8315 4.96113 11.8206C4.71067 11.8097 4.46128 11.8594 4.23408 11.9653C3.88134 12.1255 3.48163 12.1486 3.11275 12.0303C2.74386 11.912 2.4322 11.6607 2.2384 11.3253C2.04461 10.9898 1.98256 10.5943 2.06432 10.2156C2.14608 9.83694 2.36581 9.50224 2.68075 9.27666C2.88583 9.13276 3.05323 8.94158 3.16881 8.71931C3.28438 8.49703 3.34472 8.25018 3.34472 7.99966C3.34472 7.74913 3.28438 7.50228 3.16881 7.28001C3.05323 7.05773 2.88583 6.86655 2.68075 6.72266C2.36626 6.49695 2.14691 6.16239 2.06535 5.78398C1.98378 5.40557 2.04582 5.01035 2.2394 4.67513C2.43299 4.33991 2.74429 4.08864 3.11281 3.97015C3.48133 3.85166 3.88074 3.87441 4.23341 4.03399C4.46059 4.13981 4.70991 4.18935 4.96028 4.1784C5.21065 4.16746 5.4547 4.09635 5.67177 3.97111C5.88884 3.84586 6.07254 3.67016 6.20732 3.45888C6.34211 3.2476 6.424 3.00696 6.44608 2.75732" stroke="white" stroke-width="1.2" stroke-linecap="round" stroke-linejoin="round"/>
<path d="M8.00012 10C9.10469 10 10.0001 9.1046 10.0001 8.00003C10.0001 6.89546 9.10469 6.00003 8.00012 6.00003C6.89555 6.00003 6.00012 6.89546 6.00012 8.00003C6.00012 9.1046 6.89555 10 8.00012 10Z" stroke="white" stroke-width="1.2" stroke-linecap="round" stroke-linejoin="round"/>
</svg>
