<svg width="16" height="16" viewBox="0 0 16 16" fill="none" xmlns="http://www.w3.org/2000/svg">
<mask id="path-1-inside-1_321_472" fill="white">
<path fill-rule="evenodd" clip-rule="evenodd" d="M4.7227 3.48175C4.78452 3.38901 4.88859 3.33331 5.00004 3.33331H12.3334C12.4563 3.33331 12.5692 3.40097 12.6272 3.50936C12.6852 3.61775 12.6789 3.74926 12.6107 3.85155L11.2774 5.85155C11.2156 5.94428 11.1115 5.99998 11 5.99998H3.66671C3.54378 5.99998 3.43082 5.93232 3.37282 5.82393C3.31481 5.71555 3.32117 5.58403 3.38936 5.48175L4.7227 3.48175ZM5.17844 3.99998L4.28955 5.33331H10.8216L11.7105 3.99998H5.17844Z"/>
</mask>
<path d="M4.7227 3.48175L5.72116 4.14739L5.72117 4.14737L4.7227 3.48175ZM12.6107 3.85155L11.6123 3.18585L11.6122 3.18591L12.6107 3.85155ZM11.2774 5.85155L10.2789 5.18591L10.2788 5.18607L11.2774 5.85155ZM3.38936 5.48175L4.38781 6.1474L4.38782 6.14739L3.38936 5.48175ZM5.17844 3.99998V2.79998H4.53621L4.17997 3.33434L5.17844 3.99998ZM4.28955 5.33331L3.29109 4.66767L2.04733 6.53331H4.28955V5.33331ZM10.8216 5.33331V6.53331H11.4639L11.8201 5.99894L10.8216 5.33331ZM11.7105 3.99998L12.709 4.66561L13.9527 2.79998H11.7105V3.99998ZM4.7227 3.48175L5.72117 4.14737C5.56043 4.38849 5.28982 4.53331 5.00004 4.53331V3.33331V2.13331C4.48736 2.13331 4.0086 2.38954 3.72422 2.81612L4.7227 3.48175ZM5.00004 3.33331V4.53331H12.3334V3.33331V2.13331H5.00004V3.33331ZM12.3334 3.33331V4.53331C12.0137 4.53331 11.72 4.35733 11.5692 4.07554L12.6272 3.50936L13.6853 2.94318C13.4185 2.44461 12.8989 2.13331 12.3334 2.13331V3.33331ZM12.6272 3.50936L11.5692 4.07554C11.4185 3.79392 11.4348 3.45197 11.6123 3.18585L12.6107 3.85155L13.6091 4.51725C13.923 4.04655 13.952 3.44157 13.6853 2.94318L12.6272 3.50936ZM12.6107 3.85155L11.6122 3.18591L10.2789 5.18591L11.2774 5.85155L12.2758 6.51719L13.6092 4.51719L12.6107 3.85155ZM11.2774 5.85155L10.2788 5.18607C10.4396 4.94479 10.7103 4.79998 11 4.79998V5.99998V7.19998C11.5127 7.19998 11.9915 6.94377 12.2759 6.51702L11.2774 5.85155ZM11 5.99998V4.79998H3.66671V5.99998V7.19998H11V5.99998ZM3.66671 5.99998V4.79998C3.98632 4.79998 4.28 4.97589 4.43083 5.2577L3.37282 5.82393L2.31481 6.39016C2.58164 6.88875 3.10123 7.19998 3.66671 7.19998V5.99998ZM3.37282 5.82393L4.43083 5.2577C4.58165 5.53953 4.5651 5.88147 4.38781 6.1474L3.38936 5.48175L2.39091 4.81609C2.07723 5.28659 2.04797 5.89157 2.31481 6.39016L3.37282 5.82393ZM3.38936 5.48175L4.38782 6.14739L5.72116 4.14739L4.7227 3.48175L3.72423 2.81611L2.3909 4.81611L3.38936 5.48175ZM5.17844 3.99998L4.17997 3.33434L3.29109 4.66767L4.28955 5.33331L5.28801 5.99895L6.1769 4.66562L5.17844 3.99998ZM4.28955 5.33331V6.53331H10.8216V5.33331V4.13331H4.28955V5.33331ZM10.8216 5.33331L11.8201 5.99894L12.709 4.66561L11.7105 3.99998L10.712 3.33435L9.82317 4.66768L10.8216 5.33331ZM11.7105 3.99998V2.79998H5.17844V3.99998V5.19998H11.7105V3.99998Z" fill="white" mask="url(#path-1-inside-1_321_472)"/>
<mask id="path-3-inside-2_321_472" fill="white">
<path fill-rule="evenodd" clip-rule="evenodd" d="M4.7227 10.1484C4.78452 10.0557 4.88859 10 5.00004 10H12.3334C12.4563 10 12.5692 10.0677 12.6272 10.1761C12.6852 10.2845 12.6789 10.4159 12.6107 10.5183L11.2774 12.5183C11.2156 12.6109 11.1115 12.6667 11 12.6667H3.66671C3.54378 12.6667 3.43082 12.599 3.37282 12.4906C3.31481 12.3823 3.32117 12.2507 3.38936 12.1484L4.7227 10.1484ZM5.17844 10.6667L4.28955 12H10.8216L11.7105 10.6667H5.17844Z"/>
</mask>
<path d="M4.7227 10.1484L3.72444 9.48244L3.72423 9.48276L4.7227 10.1484ZM12.6107 10.5183L13.6092 11.1839L13.6093 11.1838L12.6107 10.5183ZM11.2774 12.5183L12.2757 13.1841L12.2758 13.1839L11.2774 12.5183ZM3.37282 12.4906L4.43085 11.9244L4.43071 11.9242L3.37282 12.4906ZM3.38936 12.1484L2.3909 11.4828L2.39077 11.483L3.38936 12.1484ZM5.17844 10.6667V9.46667H4.53621L4.17997 10.001L5.17844 10.6667ZM4.28955 12L3.29109 11.3344L2.04733 13.2H4.28955V12ZM10.8216 12V13.2H11.4639L11.8201 12.6656L10.8216 12ZM11.7105 10.6667L12.709 11.3323L13.9527 9.46667H11.7105V10.6667ZM4.7227 10.1484L5.72095 10.8144C5.56034 11.0551 5.28998 11.2 5.00004 11.2V10V8.8C4.4872 8.8 4.00869 9.05637 3.72444 9.48244L4.7227 10.1484ZM5.00004 10V11.2H12.3334V10V8.8H5.00004V10ZM12.3334 10V11.2C12.0136 11.2 11.7199 11.024 11.5692 10.7422L12.6272 10.1761L13.6853 9.60994C13.4185 9.11137 12.899 8.8 12.3334 8.8V10ZM12.6272 10.1761L11.5692 10.7422C11.4185 10.4605 11.4349 10.1187 11.6121 9.85278L12.6107 10.5183L13.6093 11.1838C13.9229 10.7132 13.952 10.1084 13.6853 9.60994L12.6272 10.1761ZM12.6107 10.5183L11.6122 9.85263L10.2789 11.8526L11.2774 12.5183L12.2758 13.1839L13.6092 11.1839L12.6107 10.5183ZM11.2774 12.5183L10.279 11.8525C10.4397 11.6116 10.7101 11.4667 11 11.4667V12.6667V13.8667C11.5129 13.8667 11.9915 13.6103 12.2757 13.1841L11.2774 12.5183ZM11 12.6667V11.4667H3.66671V12.6667V13.8667H11V12.6667ZM3.66671 12.6667V11.4667C3.98638 11.4667 4.28006 11.6426 4.43085 11.9244L3.37282 12.4906L2.31478 13.0568C2.58158 13.5554 3.10117 13.8667 3.66671 13.8667V12.6667ZM3.37282 12.4906L4.43071 11.9242C4.58179 12.2063 4.56495 12.5482 4.38795 12.8138L3.38936 12.1484L2.39077 11.483C2.07738 11.9532 2.04782 12.5582 2.31492 13.057L3.37282 12.4906ZM3.38936 12.1484L4.38782 12.814L5.72116 10.814L4.7227 10.1484L3.72423 9.48276L2.3909 11.4828L3.38936 12.1484ZM5.17844 10.6667L4.17997 10.001L3.29109 11.3344L4.28955 12L5.28801 12.6656L6.1769 11.3323L5.17844 10.6667ZM4.28955 12V13.2H10.8216V12V10.8H4.28955V12ZM10.8216 12L11.8201 12.6656L12.709 11.3323L11.7105 10.6667L10.712 10.001L9.82317 11.3344L10.8216 12ZM11.7105 10.6667V9.46667H5.17844V10.6667V11.8667H11.7105V10.6667Z" fill="white" mask="url(#path-3-inside-2_321_472)"/>
<mask id="path-5-inside-3_321_472" fill="white">
<path fill-rule="evenodd" clip-rule="evenodd" d="M4.7227 9.18495C4.78452 9.27762 4.88859 9.33335 5.00004 9.33335H12.3334C12.4563 9.33335 12.5692 9.26569 12.6272 9.15729C12.6852 9.04889 12.6789 8.91742 12.6107 8.81509L11.2774 6.81509C11.2156 6.72242 11.1115 6.66669 11 6.66669H3.66671C3.54378 6.66669 3.43082 6.73435 3.37282 6.84275C3.31481 6.95115 3.32117 7.08262 3.38936 7.18495L4.7227 9.18495ZM5.17844 8.66669L4.28955 7.33335H10.8216L11.7105 8.66669H5.17844Z"/>
</mask>
<path d="M4.7227 9.18495L3.72423 9.85059L3.72444 9.85091L4.7227 9.18495ZM12.6107 8.81509L13.6093 8.1496L13.6092 8.14945L12.6107 8.81509ZM11.2774 6.81509L12.2758 6.14945L12.2757 6.14928L11.2774 6.81509ZM3.38936 7.18495L2.39077 7.8504L2.3909 7.85059L3.38936 7.18495ZM5.17844 8.66669L4.17997 9.33233L4.53621 9.86669H5.17844V8.66669ZM4.28955 7.33335V6.13335H2.04733L3.29109 7.99899L4.28955 7.33335ZM10.8216 7.33335L11.8201 6.66773L11.4639 6.13335H10.8216V7.33335ZM11.7105 8.66669V9.86669H13.9527L12.709 8.00106L11.7105 8.66669ZM4.7227 9.18495L3.72444 9.85091C4.00869 10.277 4.4872 10.5334 5.00004 10.5334V9.33335V8.13335C5.28998 8.13335 5.56034 8.27826 5.72095 8.519L4.7227 9.18495ZM5.00004 9.33335V10.5334H12.3334V9.33335V8.13335H5.00004V9.33335ZM12.3334 9.33335V10.5334C12.899 10.5334 13.4185 10.222 13.6853 9.72341L12.6272 9.15729L11.5692 8.59116C11.7199 8.30939 12.0136 8.13335 12.3334 8.13335V9.33335ZM12.6272 9.15729L13.6853 9.72341C13.952 9.22496 13.9229 8.62017 13.6093 8.1496L12.6107 8.81509L11.6121 9.48058C11.4349 9.21467 11.4185 8.87281 11.5692 8.59116L12.6272 9.15729ZM12.6107 8.81509L13.6092 8.14945L12.2758 6.14945L11.2774 6.81509L10.2789 7.48073L11.6122 9.48073L12.6107 8.81509ZM11.2774 6.81509L12.2757 6.14928C11.9915 5.72304 11.5129 5.46669 11 5.46669V6.66669V7.86669C10.7102 7.86669 10.4397 7.7218 10.279 7.48089L11.2774 6.81509ZM11 6.66669V5.46669H3.66671V6.66669V7.86669H11V6.66669ZM3.66671 6.66669V5.46669C3.10117 5.46669 2.58158 5.77799 2.31478 6.27658L3.37282 6.84275L4.43085 7.40893C4.28006 7.69072 3.98638 7.86669 3.66671 7.86669V6.66669ZM3.37282 6.84275L2.31478 6.27658C2.04794 6.77523 2.07732 7.38002 2.39077 7.8504L3.38936 7.18495L4.38795 6.51951C4.56502 6.78522 4.58168 7.12707 4.43085 7.40893L3.37282 6.84275ZM3.38936 7.18495L2.3909 7.85059L3.72423 9.85059L4.7227 9.18495L5.72116 8.51931L4.38782 6.51931L3.38936 7.18495ZM5.17844 8.66669L6.1769 8.00105L5.28801 6.66771L4.28955 7.33335L3.29109 7.99899L4.17997 9.33233L5.17844 8.66669ZM4.28955 7.33335V8.53335H10.8216V7.33335V6.13335H4.28955V7.33335ZM10.8216 7.33335L9.82317 7.99898L10.712 9.33232L11.7105 8.66669L12.709 8.00106L11.8201 6.66773L10.8216 7.33335ZM11.7105 8.66669V7.46669H5.17844V8.66669V9.86669H11.7105V8.66669Z" fill="white" mask="url(#path-5-inside-3_321_472)"/>
</svg>
