<svg width="16" height="16" viewBox="0 0 16 16" fill="none" xmlns="http://www.w3.org/2000/svg">
<g clip-path="url(#clip0_360_566)">
<path d="M8.00016 14.6666C11.6821 14.6666 14.6668 11.6819 14.6668 7.99998C14.6668 4.31808 11.6821 1.33331 8.00016 1.33331C4.31826 1.33331 1.3335 4.31808 1.3335 7.99998C1.3335 11.6819 4.31826 14.6666 8.00016 14.6666Z" stroke="white" stroke-width="1.2" stroke-linecap="round" stroke-linejoin="round"/>
<path d="M6.06006 5.99992C6.21679 5.55437 6.52616 5.17866 6.93336 4.93934C7.34056 4.70003 7.81932 4.61255 8.28484 4.6924C8.75036 4.77225 9.1726 5.01427 9.47678 5.37561C9.78095 5.73694 9.94743 6.19427 9.94672 6.66659C9.94672 7.99992 7.94673 8.66659 7.94673 8.66659" stroke="white" stroke-width="1.2" stroke-linecap="round" stroke-linejoin="round"/>
<path d="M8.00012 11.3333H8.00679" stroke="white" stroke-width="1.2" stroke-linecap="round" stroke-linejoin="round"/>
</g>
<defs>
<clipPath id="clip0_360_566">
<rect width="16" height="16" fill="white"/>
</clipPath>
</defs>
</svg>
