<svg width="16" height="16" viewBox="0 0 16 16" fill="none" xmlns="http://www.w3.org/2000/svg">
<path d="M1.92274 7.34433C1.92274 7.34433 7.37757 5.1125 9.26941 4.32667C9.99457 4.01233 12.454 3.00642 12.454 3.00642C12.454 3.00642 13.5891 2.56642 13.4945 3.63508C13.4629 4.07517 13.2107 5.61542 12.9584 7.28142C12.5801 9.639 12.1702 12.2165 12.1702 12.2165C12.1702 12.2165 12.1072 12.9395 11.5712 13.0653C11.0351 13.191 10.1522 12.6252 9.99457 12.4994C9.86849 12.4051 7.62982 10.9906 6.81007 10.2991C6.58932 10.1105 6.33707 9.73325 6.84157 9.29317C7.97666 8.25592 9.33249 6.96708 10.1522 6.14983C10.5306 5.77258 10.909 4.89242 9.33249 5.96117C7.09382 7.50142 4.88666 8.94742 4.88666 8.94742C4.88666 8.94742 4.38224 9.26175 3.43632 8.97883C2.49041 8.69592 1.38682 8.31875 1.38682 8.31875C1.38682 8.31875 0.630157 7.84717 1.92291 7.34433H1.92274Z" stroke="white" stroke-width="1.2"/>
</svg>
