<svg width="20" height="20" viewBox="0 0 20 20" fill="none" xmlns="http://www.w3.org/2000/svg">
<g clip-path="url(#clip0_378_319)">
<path d="M16.5059 8.80762C16.415 8.89319 16.2947 8.98503 16.1318 9.07812C15.6335 9.36296 14.9085 9.58221 14.0781 9.74023C12.4312 10.0536 10.614 10.083 10 10.083C9.38604 10.083 7.56882 10.0536 5.92188 9.74023C5.09152 9.58221 4.36646 9.36296 3.86816 9.07812C3.70499 8.98485 3.58412 8.89334 3.49316 8.80762L4.13965 9.03906C6.01749 9.71042 8.00809 10.0077 10 9.91602C11.9919 10.0077 13.9825 9.71042 15.8604 9.03906L16.5059 8.80762ZM10 6.58301C10.614 6.58301 12.4312 6.61242 14.0781 6.92578C14.9085 7.0838 15.6335 7.30306 16.1318 7.58789C16.2944 7.68082 16.415 7.77199 16.5059 7.85742L15.8604 7.62695C13.9825 6.9556 11.9919 6.65735 10 6.74902C8.00811 6.65735 6.01748 6.95561 4.13965 7.62695L3.49316 7.85742C3.58407 7.77184 3.70528 7.681 3.86816 7.58789C4.36646 7.30306 5.09152 7.0838 5.92188 6.92578C7.56882 6.61242 9.38604 6.58301 10 6.58301Z" stroke="#2563EB" stroke-width="1.5"/>
<path d="M3.33301 2.41699H16.667C16.689 2.41708 16.71 2.42586 16.7256 2.44141C16.7411 2.45696 16.7499 2.47802 16.75 2.5C16.75 2.5221 16.7412 2.54394 16.7256 2.55957C16.7101 2.57502 16.6889 2.5839 16.667 2.58398H10.083V17.5C10.083 17.5221 10.0742 17.5439 10.0586 17.5596C10.043 17.575 10.0219 17.584 10 17.584C9.97805 17.584 9.957 17.575 9.94141 17.5596C9.92578 17.5439 9.91699 17.5221 9.91699 17.5V2.58398H3.33301C3.3111 2.5839 3.28995 2.57502 3.27441 2.55957C3.25879 2.54394 3.25 2.5221 3.25 2.5C3.25009 2.47802 3.25886 2.45696 3.27441 2.44141C3.28997 2.42586 3.31102 2.41708 3.33301 2.41699Z" stroke="#2563EB" stroke-width="1.5"/>
<path d="M3.33301 8.25H3.3457C3.36523 8.24971 3.38425 8.25627 3.39941 8.26855C3.41467 8.28106 3.42516 8.29895 3.42871 8.31836L3.47461 8.57129L3.66602 8.74219C3.88048 8.93432 4.20215 9.0795 4.51758 9.19336C4.8615 9.31749 5.29865 9.43803 5.81836 9.54395C6.85939 9.75608 8.2681 9.91699 10 9.91699C11.732 9.91699 13.1455 9.75704 14.1885 9.54492C14.7089 9.43906 15.1465 9.31773 15.4902 9.19336C15.8018 9.08059 16.1302 8.93288 16.3457 8.73145L16.5264 8.5625L16.5713 8.31836C16.5748 8.29895 16.5853 8.28106 16.6006 8.26855C16.6157 8.25627 16.6348 8.24971 16.6543 8.25H16.667C16.689 8.25009 16.71 8.2589 16.7256 8.27441C16.7411 8.28994 16.7499 8.31106 16.75 8.33301C16.75 8.538 16.633 8.79161 16.1318 9.07812C15.6335 9.36296 14.9085 9.58221 14.0781 9.74023C12.4312 10.0536 10.614 10.083 10 10.083C9.38603 10.083 7.56884 10.0536 5.92188 9.74023C5.09152 9.58221 4.36646 9.36296 3.86816 9.07812C3.36702 8.79161 3.25 8.538 3.25 8.33301C3.25011 8.31106 3.25889 8.28994 3.27441 8.27441C3.28996 8.2589 3.31105 8.25009 3.33301 8.25Z" stroke="#2563EB" stroke-width="1.5"/>
</g>
<defs>
<clipPath id="clip0_378_319">
<rect width="20" height="20" fill="white"/>
</clipPath>
</defs>
</svg>
