<svg width="24" height="24" viewBox="0 0 24 24" fill="none" xmlns="http://www.w3.org/2000/svg">
<path d="M19.0005 7V4C19.0005 3.73478 18.8951 3.48043 18.7076 3.29289C18.5201 3.10536 18.2657 3 18.0005 3H5.00049C4.47006 3 3.96135 3.21071 3.58627 3.58579C3.2112 3.96086 3.00049 4.46957 3.00049 5C3.00049 5.53043 3.2112 6.03914 3.58627 6.41421C3.96135 6.78929 4.47006 7 5.00049 7H20.0005C20.2657 7 20.5201 7.10536 20.7076 7.29289C20.8951 7.48043 21.0005 7.73478 21.0005 8V12M21.0005 12H18.0005C17.4701 12 16.9613 12.2107 16.5863 12.5858C16.2112 12.9609 16.0005 13.4696 16.0005 14C16.0005 14.5304 16.2112 15.0391 16.5863 15.4142C16.9613 15.7893 17.4701 16 18.0005 16H21.0005C21.2657 16 21.5201 15.8946 21.7076 15.7071C21.8951 15.5196 22.0005 15.2652 22.0005 15V13C22.0005 12.7348 21.8951 12.4804 21.7076 12.2929C21.5201 12.1054 21.2657 12 21.0005 12Z" stroke="#2563EB" stroke-width="1.8" stroke-linecap="round" stroke-linejoin="round"/>
<path d="M3.00049 5V19C3.00049 19.5304 3.2112 20.0391 3.58627 20.4142C3.96135 20.7893 4.47006 21 5.00049 21H20.0005C20.2657 21 20.5201 20.8946 20.7076 20.7071C20.8951 20.5196 21.0005 20.2652 21.0005 20V16" stroke="#2563EB" stroke-width="1.8" stroke-linecap="round" stroke-linejoin="round"/>
</svg>
