<svg width="16" height="16" viewBox="0 0 16 16" fill="none" xmlns="http://www.w3.org/2000/svg">
<path d="M0.732422 0.599609H5.09473C5.12516 0.599618 5.15292 0.607186 5.1748 0.618164C5.19615 0.628915 5.20862 0.641601 5.21484 0.650391L5.21582 0.651367L8.89551 5.9502L9.30664 6.54199L9.81348 6.03027L15.1562 0.645508C15.1748 0.627345 15.2108 0.608368 15.2598 0.606445C15.309 0.604559 15.3491 0.621464 15.3721 0.640625C15.3828 0.649568 15.3889 0.657031 15.3916 0.662109C15.3942 0.667077 15.3945 0.670692 15.3945 0.671875C15.3946 0.673028 15.3937 0.674695 15.3926 0.677734C15.3913 0.681092 15.3878 0.68675 15.3809 0.694336L9.77148 6.35059L9.41992 6.70508L9.70508 7.11523L15.3936 15.3086C15.3966 15.313 15.3987 15.3161 15.3994 15.3184C15.4001 15.3205 15.4004 15.3223 15.4004 15.3232C15.4004 15.3241 15.3999 15.3254 15.3994 15.3271C15.399 15.3289 15.3979 15.3319 15.3955 15.3359C15.3906 15.3441 15.3793 15.3572 15.3574 15.3691C15.3352 15.3812 15.3059 15.3896 15.2734 15.3896H10.9092C10.8788 15.3898 10.8511 15.383 10.8291 15.3721L10.7881 15.3398L7.11133 10.0439L6.7002 9.45215L6.19238 9.96387L0.844727 15.3535L0.839844 15.3584C0.831514 15.367 0.818057 15.3767 0.799805 15.3848C0.781567 15.3928 0.759896 15.3983 0.736328 15.3994C0.71269 15.4006 0.689393 15.3973 0.668945 15.3906C0.648834 15.384 0.633035 15.3753 0.62207 15.3662C0.61112 15.3571 0.605159 15.3479 0.602539 15.3428C0.600258 15.3381 0.599659 15.3351 0.599609 15.334C0.599584 15.3328 0.600153 15.3306 0.601562 15.3271C0.603169 15.3232 0.60744 15.3163 0.616211 15.3076L0.621094 15.3018L6.23438 9.63867L6.58594 9.28418L6.30078 8.87402L0.612305 0.681641L0.606445 0.670898C0.605868 0.669112 0.605529 0.667864 0.605469 0.666992C0.605437 0.666119 0.606033 0.664727 0.606445 0.663086C0.606901 0.661338 0.60794 0.658334 0.610352 0.654297C0.615253 0.646112 0.626291 0.632123 0.648438 0.620117C0.670744 0.608062 0.699953 0.599626 0.732422 0.599609ZM1.56445 1.6748L10.8174 15L10.9961 15.2578H15.0967L14.4414 14.3154L5.18555 0.990234L5.00586 0.732422H0.910156L1.56445 1.6748Z" stroke="white" stroke-width="1.2"/>
</svg>
