<svg width="16" height="16" viewBox="0 0 16 16" fill="none" xmlns="http://www.w3.org/2000/svg">
<path d="M1.66679 11.3334C1.20108 9.13557 1.20108 6.86455 1.66679 4.66673C1.72799 4.44353 1.84622 4.24011 2.00986 4.07647C2.17351 3.91282 2.37693 3.79459 2.60013 3.73339C6.17576 3.14103 9.82449 3.14103 13.4001 3.73339C13.6233 3.79459 13.8267 3.91282 13.9904 4.07647C14.154 4.24011 14.2723 4.44353 14.3335 4.66673C14.7992 6.86455 14.7992 9.13557 14.3335 11.3334C14.2723 11.5566 14.154 11.76 13.9904 11.9237C13.8267 12.0873 13.6233 12.2055 13.4001 12.2667C9.8245 12.8592 6.17575 12.8592 2.60013 12.2667C2.37693 12.2055 2.17351 12.0873 2.00986 11.9237C1.84622 11.76 1.72799 11.5566 1.66679 11.3334Z" stroke="white" stroke-width="1.2" stroke-linecap="round" stroke-linejoin="round"/>
<path d="M6.66675 10L10.0001 8L6.66675 6V10Z" stroke="white" stroke-width="1.2" stroke-linecap="round" stroke-linejoin="round"/>
</svg>
